<svg version="1.2" xmlns="http://www.w3.org/2000/svg" viewBox="0 0 500 500" width="500" height="500"><style>.a{fill:#57b7dd}.b{fill:#f99132}.c{fill:#a98bbc}.d{fill:#ff6d56}.e{fill:#8ac539}.f{fill:#ffbe0a}</style><path class="a" d="m62.6 170.2v108.6l127 60.2 130-136.9-84.9-154.9c-2.8 1-5.6 2.2-8 3.7l-141.1 81.3c-14.4 7.4-23 21.8-23 38z"/><path class="b" d="m189.6 338.7l153 72 69.4-40.1-92.7-169.1z"/><path class="c" d="m395.7 121.8l-124.5-71.2c-11.1-6.1-24.3-7.7-36.2-3.7l84.9 154.9 76.1-80z"/><path class="d" d="m412.3 370.9h0.3c13.8-8 22.1-22.7 22.1-38.4v-162.3c0-15.9-8.3-30.3-22.1-38.6l-16.9-9.5-76.1 80z"/><path class="e" d="m62.6 278.5v53.7c0 15.7 8.6 30.4 22.4 38.4l47.8 27.6 56.8-59.9z"/><path class="f" d="m133.1 398.5l93.3 53.6c13.8 8 31 8 44.8 0l71.4-41.1-153-72c0-0.3-56.5 59.5-56.5 59.5z"/></svg> 